<svg xmlns="http://www.w3.org/2000/svg" xmlns:xlink="http://www.w3.org/1999/xlink" width="318" zoomAndPan="magnify" viewBox="0 0 238.5 161.999997" height="216" preserveAspectRatio="xMidYMid meet" version="1.0"><defs><g/><clipPath id="ea580e4aad"><path d="M 21 21 L 137 21 L 137 140 L 21 140 Z M 21 21 " clip-rule="nonzero"/></clipPath><clipPath id="29a686d24c"><path d="M 0 58.671875 L 101.046875 0.175781 L 160.292969 102.515625 L 59.246094 161.011719 Z M 0 58.671875 " clip-rule="nonzero"/></clipPath><clipPath id="291c44dcc7"><path d="M 0 58.671875 L 101.046875 0.175781 L 160.292969 102.515625 L 59.246094 161.011719 Z M 0 58.671875 " clip-rule="nonzero"/></clipPath><clipPath id="5203190009"><path d="M 34 25 L 129 25 L 129 129 L 34 129 Z M 34 25 " clip-rule="nonzero"/></clipPath><clipPath id="eaae2d22d6"><path d="M 0 58.671875 L 101.046875 0.175781 L 160.292969 102.515625 L 59.246094 161.011719 Z M 0 58.671875 " clip-rule="nonzero"/></clipPath><clipPath id="3c00add31a"><path d="M 0 58.671875 L 101.046875 0.175781 L 160.292969 102.515625 L 59.246094 161.011719 Z M 0 58.671875 " clip-rule="nonzero"/></clipPath><clipPath id="5dfb7286fe"><path d="M 47 33 L 134 33 L 134 119 L 47 119 Z M 47 33 " clip-rule="nonzero"/></clipPath><clipPath id="539fa1f8cc"><path d="M 0 58.671875 L 101.046875 0.175781 L 160.292969 102.515625 L 59.246094 161.011719 Z M 0 58.671875 " clip-rule="nonzero"/></clipPath><clipPath id="eab20adccc"><path d="M 0 58.671875 L 101.046875 0.175781 L 160.292969 102.515625 L 59.246094 161.011719 Z M 0 58.671875 " clip-rule="nonzero"/></clipPath></defs><g clip-path="url(#ea580e4aad)"><g clip-path="url(#29a686d24c)"><g clip-path="url(#291c44dcc7)"><path fill="#00bf63" d="M 113.46875 125.769531 C 86.832031 141.191406 52.738281 132.101562 37.316406 105.460938 C 21.894531 78.824219 30.988281 44.730469 57.625 29.308594 C 68.371094 23.089844 80.332031 20.859375 91.789062 22.160156 C 78.351562 19.621094 63.972656 21.703125 51.207031 29.09375 C 22.941406 45.457031 13.296875 81.632812 29.65625 109.898438 C 46.019531 138.160156 82.195312 147.808594 110.460938 131.445312 C 123.226562 124.054688 132.195312 112.625 136.683594 99.703125 C 132.105469 110.289062 124.214844 119.550781 113.46875 125.769531 Z M 113.46875 125.769531 " fill-opacity="1" fill-rule="nonzero"/></g></g></g><g clip-path="url(#5203190009)"><g clip-path="url(#eaae2d22d6)"><g clip-path="url(#3c00add31a)"><path fill="#7ed957" d="M 78.363281 125.320312 C 52.460938 118.410156 37.0625 91.8125 43.96875 65.90625 C 50.878906 40 77.476562 24.601562 103.382812 31.511719 C 113.832031 34.296875 122.574219 40.289062 128.828125 48.148438 C 122.117188 38.308594 111.976562 30.734375 99.5625 27.421875 C 72.078125 20.09375 43.851562 36.433594 36.519531 63.917969 C 29.191406 91.40625 45.53125 119.632812 73.015625 126.960938 C 85.429688 130.273438 97.996094 128.753906 108.71875 123.5625 C 99.378906 127.261719 88.816406 128.105469 78.363281 125.320312 Z M 78.363281 125.320312 " fill-opacity="1" fill-rule="nonzero"/></g></g></g><g clip-path="url(#5dfb7286fe)"><g clip-path="url(#539fa1f8cc)"><g clip-path="url(#eab20adccc)"><path fill="#c1ff72" d="M 57.171875 101.097656 C 45.871094 81.574219 52.535156 56.585938 72.058594 45.285156 C 91.582031 33.980469 116.570312 40.644531 127.871094 60.167969 C 132.429688 68.042969 134.066406 76.808594 133.113281 85.207031 C 134.972656 75.359375 133.445312 64.820312 128.03125 55.464844 C 116.039062 34.75 89.523438 27.675781 68.808594 39.671875 C 48.09375 51.664062 41.019531 78.175781 53.011719 98.894531 C 58.429688 108.25 66.808594 114.820312 76.277344 118.113281 C 68.519531 114.757812 61.730469 108.972656 57.171875 101.097656 Z M 57.171875 101.097656 " fill-opacity="1" fill-rule="nonzero"/></g></g></g><g fill="#737373" fill-opacity="1"><g transform="translate(55.502021, 93.573569)"><g><path d="M 21.4375 -10.71875 C 21.4375 -9.15625 21.171875 -7.710938 20.640625 -6.390625 C 20.117188 -5.078125 19.378906 -3.945312 18.421875 -3 C 17.460938 -2.0625 16.304688 -1.328125 14.953125 -0.796875 C 13.609375 -0.265625 12.117188 0 10.484375 0 L 2.25 0 L 2.25 -21.40625 L 10.484375 -21.40625 C 12.117188 -21.40625 13.609375 -21.140625 14.953125 -20.609375 C 16.304688 -20.078125 17.460938 -19.335938 18.421875 -18.390625 C 19.378906 -17.441406 20.117188 -16.3125 20.640625 -15 C 21.171875 -13.695312 21.4375 -12.269531 21.4375 -10.71875 Z M 16.890625 -10.71875 C 16.890625 -11.832031 16.742188 -12.835938 16.453125 -13.734375 C 16.160156 -14.628906 15.738281 -15.382812 15.1875 -16 C 14.632812 -16.625 13.960938 -17.101562 13.171875 -17.4375 C 12.378906 -17.78125 11.484375 -17.953125 10.484375 -17.953125 L 6.703125 -17.953125 L 6.703125 -3.46875 L 10.484375 -3.46875 C 11.484375 -3.46875 12.378906 -3.628906 13.171875 -3.953125 C 13.960938 -4.285156 14.632812 -4.765625 15.1875 -5.390625 C 15.738281 -6.015625 16.160156 -6.773438 16.453125 -7.671875 C 16.742188 -8.566406 16.890625 -9.582031 16.890625 -10.71875 Z M 16.890625 -10.71875 "/></g></g></g><g fill="#737373" fill-opacity="1"><g transform="translate(77.953775, 93.573569)"><g><path d="M 13.546875 -8.125 L 11.234375 -14.6875 C 11.097656 -15.03125 10.953125 -15.429688 10.796875 -15.890625 C 10.640625 -16.359375 10.492188 -16.863281 10.359375 -17.40625 C 10.222656 -16.851562 10.078125 -16.34375 9.921875 -15.875 C 9.773438 -15.40625 9.628906 -15 9.484375 -14.65625 L 7.1875 -8.125 Z M 20.984375 0 L 17.546875 0 C 17.160156 0 16.847656 -0.0859375 16.609375 -0.265625 C 16.367188 -0.453125 16.191406 -0.6875 16.078125 -0.96875 L 14.625 -5.0625 L 6.09375 -5.0625 L 4.65625 -0.96875 C 4.550781 -0.726562 4.375 -0.503906 4.125 -0.296875 C 3.882812 -0.0976562 3.578125 0 3.203125 0 L -0.265625 0 L 8.109375 -21.40625 L 12.625 -21.40625 Z M 20.984375 0 "/></g></g></g><g fill="#737373" fill-opacity="1"><g transform="translate(98.664848, 93.573569)"><g><path d="M 17.40625 -17.84375 L 11.140625 -17.84375 L 11.140625 0 L 6.703125 0 L 6.703125 -17.84375 L 0.4375 -17.84375 L 0.4375 -21.40625 L 17.40625 -21.40625 Z M 17.40625 -17.84375 "/></g></g></g><g fill="#737373" fill-opacity="1"><g transform="translate(116.484638, 93.573569)"><g><path d="M 13.546875 -8.125 L 11.234375 -14.6875 C 11.097656 -15.03125 10.953125 -15.429688 10.796875 -15.890625 C 10.640625 -16.359375 10.492188 -16.863281 10.359375 -17.40625 C 10.222656 -16.851562 10.078125 -16.34375 9.921875 -15.875 C 9.773438 -15.40625 9.628906 -15 9.484375 -14.65625 L 7.1875 -8.125 Z M 20.984375 0 L 17.546875 0 C 17.160156 0 16.847656 -0.0859375 16.609375 -0.265625 C 16.367188 -0.453125 16.191406 -0.6875 16.078125 -0.96875 L 14.625 -5.0625 L 6.09375 -5.0625 L 4.65625 -0.96875 C 4.550781 -0.726562 4.375 -0.503906 4.125 -0.296875 C 3.882812 -0.0976562 3.578125 0 3.203125 0 L -0.265625 0 L 8.109375 -21.40625 L 12.625 -21.40625 Z M 20.984375 0 "/></g></g></g><g fill="#7ed957" fill-opacity="1"><g transform="translate(137.197468, 93.573569)"><g><path d="M 16.828125 -5.265625 C 17.066406 -5.265625 17.269531 -5.175781 17.4375 -5 L 19.203125 -3.125 C 18.335938 -2.019531 17.257812 -1.179688 15.96875 -0.609375 C 14.6875 -0.046875 13.160156 0.234375 11.390625 0.234375 C 9.785156 0.234375 8.34375 -0.0351562 7.0625 -0.578125 C 5.789062 -1.128906 4.707031 -1.890625 3.8125 -2.859375 C 2.914062 -3.835938 2.222656 -4.992188 1.734375 -6.328125 C 1.253906 -7.671875 1.015625 -9.132812 1.015625 -10.71875 C 1.015625 -11.78125 1.128906 -12.789062 1.359375 -13.75 C 1.597656 -14.707031 1.9375 -15.585938 2.375 -16.390625 C 2.820312 -17.203125 3.359375 -17.929688 3.984375 -18.578125 C 4.609375 -19.222656 5.3125 -19.773438 6.09375 -20.234375 C 6.882812 -20.691406 7.742188 -21.039062 8.671875 -21.28125 C 9.597656 -21.53125 10.585938 -21.65625 11.640625 -21.65625 C 12.429688 -21.65625 13.175781 -21.582031 13.875 -21.4375 C 14.582031 -21.300781 15.238281 -21.109375 15.84375 -20.859375 C 16.457031 -20.617188 17.019531 -20.320312 17.53125 -19.96875 C 18.050781 -19.625 18.519531 -19.242188 18.9375 -18.828125 L 17.4375 -16.796875 C 17.351562 -16.671875 17.238281 -16.554688 17.09375 -16.453125 C 16.957031 -16.359375 16.773438 -16.3125 16.546875 -16.3125 C 16.304688 -16.3125 16.066406 -16.394531 15.828125 -16.5625 C 15.585938 -16.726562 15.289062 -16.910156 14.9375 -17.109375 C 14.59375 -17.316406 14.15625 -17.503906 13.625 -17.671875 C 13.101562 -17.847656 12.4375 -17.9375 11.625 -17.9375 C 10.726562 -17.9375 9.90625 -17.769531 9.15625 -17.4375 C 8.414062 -17.113281 7.773438 -16.644531 7.234375 -16.03125 C 6.703125 -15.414062 6.285156 -14.660156 5.984375 -13.765625 C 5.691406 -12.867188 5.546875 -11.851562 5.546875 -10.71875 C 5.546875 -9.5625 5.707031 -8.53125 6.03125 -7.625 C 6.351562 -6.726562 6.789062 -5.96875 7.34375 -5.34375 C 7.894531 -4.726562 8.539062 -4.257812 9.28125 -3.9375 C 10.03125 -3.625 10.828125 -3.46875 11.671875 -3.46875 C 12.171875 -3.46875 12.625 -3.488281 13.03125 -3.53125 C 13.445312 -3.582031 13.828125 -3.664062 14.171875 -3.78125 C 14.523438 -3.90625 14.851562 -4.0625 15.15625 -4.25 C 15.46875 -4.4375 15.78125 -4.671875 16.09375 -4.953125 C 16.207031 -5.046875 16.320312 -5.117188 16.4375 -5.171875 C 16.5625 -5.234375 16.691406 -5.265625 16.828125 -5.265625 Z M 16.828125 -5.265625 "/></g></g></g><g fill="#7ed957" fill-opacity="1"><g transform="translate(156.639919, 93.573569)"><g><path d="M 13.546875 -8.125 L 11.234375 -14.6875 C 11.097656 -15.03125 10.953125 -15.429688 10.796875 -15.890625 C 10.640625 -16.359375 10.492188 -16.863281 10.359375 -17.40625 C 10.222656 -16.851562 10.078125 -16.34375 9.921875 -15.875 C 9.773438 -15.40625 9.628906 -15 9.484375 -14.65625 L 7.1875 -8.125 Z M 20.984375 0 L 17.546875 0 C 17.160156 0 16.847656 -0.0859375 16.609375 -0.265625 C 16.367188 -0.453125 16.191406 -0.6875 16.078125 -0.96875 L 14.625 -5.0625 L 6.09375 -5.0625 L 4.65625 -0.96875 C 4.550781 -0.726562 4.375 -0.503906 4.125 -0.296875 C 3.882812 -0.0976562 3.578125 0 3.203125 0 L -0.265625 0 L 8.109375 -21.40625 L 12.625 -21.40625 Z M 20.984375 0 "/></g></g></g><g fill="#7ed957" fill-opacity="1"><g transform="translate(177.350993, 93.573569)"><g><path d="M 20.59375 -21.40625 L 20.59375 0 L 18.296875 0 C 17.953125 0 17.660156 -0.0546875 17.421875 -0.171875 C 17.191406 -0.285156 16.960938 -0.476562 16.734375 -0.75 L 6.0625 -14.328125 C 6.09375 -13.984375 6.113281 -13.644531 6.125 -13.3125 C 6.144531 -12.976562 6.15625 -12.664062 6.15625 -12.375 L 6.15625 0 L 2.25 0 L 2.25 -21.40625 L 4.578125 -21.40625 C 4.765625 -21.40625 4.921875 -21.398438 5.046875 -21.390625 C 5.179688 -21.378906 5.300781 -21.34375 5.40625 -21.28125 C 5.519531 -21.226562 5.625 -21.15625 5.71875 -21.0625 C 5.820312 -20.976562 5.929688 -20.863281 6.046875 -20.71875 L 16.796875 -7.078125 C 16.753906 -7.453125 16.722656 -7.8125 16.703125 -8.15625 C 16.679688 -8.507812 16.671875 -8.847656 16.671875 -9.171875 L 16.671875 -21.40625 Z M 20.59375 -21.40625 "/></g></g></g><g fill="#7ed957" fill-opacity="1"><g transform="translate(200.17153, 93.573569)"><g><path d="M 13.546875 -8.125 L 11.234375 -14.6875 C 11.097656 -15.03125 10.953125 -15.429688 10.796875 -15.890625 C 10.640625 -16.359375 10.492188 -16.863281 10.359375 -17.40625 C 10.222656 -16.851562 10.078125 -16.34375 9.921875 -15.875 C 9.773438 -15.40625 9.628906 -15 9.484375 -14.65625 L 7.1875 -8.125 Z M 20.984375 0 L 17.546875 0 C 17.160156 0 16.847656 -0.0859375 16.609375 -0.265625 C 16.367188 -0.453125 16.191406 -0.6875 16.078125 -0.96875 L 14.625 -5.0625 L 6.09375 -5.0625 L 4.65625 -0.96875 C 4.550781 -0.726562 4.375 -0.503906 4.125 -0.296875 C 3.882812 -0.0976562 3.578125 0 3.203125 0 L -0.265625 0 L 8.109375 -21.40625 L 12.625 -21.40625 Z M 20.984375 0 "/></g></g></g></svg>